<svg xmlns="http://www.w3.org/2000/svg" viewBox="0 0 102.79 107.7"><defs><style>.cls-1{fill:#fff;}</style></defs><title>資產 2</title><g id="圖層_2" data-name="圖層 2"><g id="圖層_1-2" data-name="圖層 1"><path class="cls-1" d="M53.55,31.74a21.11,21.11,0,0,1,19,15.64C76.39,62,63.9,75.84,49,73.27a21.3,21.3,0,0,1-16.51-15C28.89,45.11,38.41,33,51.53,31.72c-.28-2.13,2.28-2.13,2,0m-2.16,1.64c-15.75,1.44-23.93,20.08-13,32.18C50.61,79.1,72.65,69.41,71.61,51.45c-.59-10-10-19-20.22-18.07"/><path class="cls-1" d="M96.15,38.6a5.14,5.14,0,0,1,1.25,2.56V54.39c6.08,5.34-.59,15-7.57,11.06-4.21-2.37-4.47-7.82-1.12-11.06.3-4.15-.41-8.87,0-12.94a4.39,4.39,0,0,1,7.42-2.85m-3.73.52a2.88,2.88,0,0,0-1.94,1.94l0,14c-.08.4-1,1.08-1.33,1.48a5,5,0,1,0,7.55-.48c-.27-.3-.79-.41-.87-.87V41.82c-.2-1.91-1.41-3-3.38-2.7"/><path class="cls-1" d="M51.25,2.77c12.07-1.45,11.6,17.74.63,16.93C42.62,19,42.4,3.82,51.25,2.77m.4,1.6c-6.92.84-7,12.21-.4,13.56,9.24,1.88,10.17-14.74.4-13.56"/><path class="cls-1" d="M46.3,97.14a.8.8,0,0,1-.56,1.31,4.7,4.7,0,0,1-4.06-2.24,5,5,0,0,1,4.12-7.66A5.74,5.74,0,0,1,57,87.42c.63.09,1.13-.12,1.8-.06A5.69,5.69,0,0,1,61.4,97.67c-.59.4-2.42,1.4-2.74.27s1.59-1.32,2.32-2A4.06,4.06,0,0,0,58.18,89c-.67,0-1.74.6-2.18.42-.62-.26-.36-.76-.5-1.25a4.11,4.11,0,0,0-7.62-1c-.56,1-.3,1.49-.5,2.43s-1.16.57-1.88.67a3.38,3.38,0,0,0-.61,6.56c.38.13,1.12.08,1.41.39"/><path class="cls-1" d="M91.88,70.26a.83.83,0,0,1,1.11,1,21.67,21.67,0,0,1-1.67,3.69,43.83,43.83,0,0,1-18.38,18,23.41,23.41,0,0,1-3.21,1.47c-.66.18-1.34-.14-1.18-.91s2-1.24,2.7-1.59A42.57,42.57,0,0,0,89.72,74.38c.6-1.11,1.14-2.78,1.74-3.73a1,1,0,0,1,.42-.39"/><path class="cls-1" d="M35.08,10.37a.82.82,0,0,1,.56,1.51,42.75,42.75,0,0,0-22.85,21.8c-1.71.92-1.6-.41-1.1-1.63,3.43-8.46,12.94-17.12,21.19-20.79a14.09,14.09,0,0,1,2.2-.89"/><path class="cls-1" d="M12.08,70.26a.63.63,0,0,1,.4.07c.48.21,1.35,2.47,1.7,3.12a43,43,0,0,0,21.4,19.11c.78,1,.1,1.7-1.08,1.34a31,31,0,0,1-5.1-2.52A44,44,0,0,1,12.2,73.16c-.36-.75-1.59-2.67-.12-2.9"/><path class="cls-1" d="M68.75,10.37c.66-.2,2.85.86,3.57,1.2C80,15.19,89.53,23.77,92.61,31.78c.18.46.43.87.06,1.31-1.15,1.33-2.3-2.16-2.73-2.91A42.89,42.89,0,0,0,71.52,13c-.61-.3-2.66-1-3-1.29a.86.86,0,0,1,.22-1.38"/><path class="cls-1" d="M13.68,38.17c.63-.11,1.94,1.35,2.38,1.85a19.36,19.36,0,0,1,.79,24.32c-.45.58-2,2.44-2.67,2.43a.78.78,0,0,1-.74-.87c0-.72,1.1-1.4,1.55-1.94,5.83-7,5.31-16.72-.67-23.4-.51-.58-1.64-1-1.17-2a.8.8,0,0,1,.53-.42"/><path class="cls-1" d="M10.47,41.92c.92-.28,2,1.25,2.58,1.92a14.13,14.13,0,0,1,0,17.56c-.45.58-2,2.65-2.73,1.43-.52-.85.64-1.47,1.07-2,3.63-4.64,4.13-10.68.59-15.56-.38-.53-1.89-1.93-2-2.28a.88.88,0,0,1,.44-1"/><path class="cls-1" d="M3.53,49c4.45-.12,4.88,6.72.63,7.18-5.36.59-5.51-7.05-.63-7.18m-.41,1.73a2,2,0,0,0,.12,3.83c3.13.43,2.93-4.46-.12-3.83"/><path class="cls-1" d="M46.7,100.21a4.59,4.59,0,0,1,3,.46c.64.31,1.3,1,2,1.08.84,0,1.66-.93,2.64-.91,1.45,0,1.9,1.72,3.85,1.32.66-.14,1.53-1.26,2.23-.57,1.06,1-1.48,2.13-2.33,2.21-1.77.16-2.39-.47-3.77-1.32-1.08.39-1.65,1-2.89.87-2-.24-2.41-2.13-4.81-1.39-.59.18-2,1.44-2.35.26s1.6-1.87,2.48-2"/><path class="cls-1" d="M7.53,45.53c.7-.21,1.4.67,1.84,1.18a9.08,9.08,0,0,1,0,11.9c-.46.53-1.25,1.49-2,.94-1-.69.58-1.83,1-2.37,2.37-3.17,2-6.6-.38-9.6-.42-.52-1.15-.78-.91-1.58a1,1,0,0,1,.47-.47"/><path class="cls-1" d="M47.91,104.09c2.39-.31,3.24,1.63,4.65,1.71,1,0,1.55-.74,2.4-.68,1,.07,1.42,1.12,3.07.94.76-.08,2.08-1.36,2.54-.4.38.78-.18,1.17-.78,1.5a4.82,4.82,0,0,1-3.06.47c-.68-.1-1.54-.77-1.9-.78s-1.11.47-1.62.54c-2.52.33-3.18-1.86-5-1.67-.79.07-1.6,1-2.26.4-1.17-1,1.18-1.92,2-2"/><path class="cls-1" d="M58.94,1.49A.83.83,0,0,1,59.25.21,13.79,13.79,0,0,1,63,.07a2.17,2.17,0,0,1,2,1.92,24.71,24.71,0,0,1,0,3.75c-.12,1-1.29,1.13-1.55.34s.22-3.8-.25-4.17-3.53.28-4.18-.42"/><path class="cls-1" d="M42.16.09a16.91,16.91,0,0,1,3.41,0,.88.88,0,0,1,.36,1.51c-.8.53-3.56-.09-4.09.32s0,3.43-.21,4.2a.83.83,0,0,1-1.57-.25,25.62,25.62,0,0,1,0-4.11A2.27,2.27,0,0,1,42.16.09"/><path class="cls-1" d="M40.55,14.92c2-.6.63,3.7,1.23,4.46.36.46,3.17,0,3.93.22a.82.82,0,0,1-.24,1.58,24.17,24.17,0,0,1-3.61,0,2,2,0,0,1-1.7-1.38,22,22,0,0,1-.1-4.3.84.84,0,0,1,.49-.58"/><path class="cls-1" d="M63.81,14.92a.83.83,0,0,1,1.1.58,26.7,26.7,0,0,1,0,4,2.08,2.08,0,0,1-1.68,1.66,22.12,22.12,0,0,1-3.73,0,.8.8,0,0,1-.21-1.55c.78-.25,3.54.21,3.9-.25.51-.64-.43-4.14.62-4.46"/><path class="cls-1" d="M99.9,43a9.44,9.44,0,0,1,2.44,0A.89.89,0,0,1,102,44.7a8.8,8.8,0,0,1-2.19-.07A.88.88,0,0,1,99.9,43"/><path class="cls-1" d="M99.9,47.14a9.44,9.44,0,0,1,2.44,0,.89.89,0,0,1-.34,1.66,8.81,8.81,0,0,1-2.19-.06.89.89,0,0,1,.09-1.64"/><path class="cls-1" d="M102.58,52.69a8,8,0,0,1-2.82.14.83.83,0,0,1,.14-1.55,11.53,11.53,0,0,1,2.35,0,1,1,0,0,1,.33,1.41"/><path class="cls-1" d="M28.92,51.82c1.15,1.09-1,2.7-2,1.38s1.24-2.06,2-1.38"/><path class="cls-1" d="M52.18,26c1.71-.51,1.88,3-.11,2.32-.81-.26-.72-2.07.11-2.32"/><path class="cls-1" d="M52.32,21.86c1.28-.23,1.78,2.17.36,2.38-1.63.24-1.44-2.18-.36-2.38"/><path class="cls-1" d="M24.91,53.36a2.1,2.1,0,0,1-1.77,0c-1.11-.85.12-2.31,1.54-1.68a1.12,1.12,0,0,1,.23,1.64"/><path class="cls-1" d="M51.72,79.49c.92-1,2.52.42,1.57,1.64-1.14,1.46-2.38-.78-1.57-1.64"/><path class="cls-1" d="M82.25,51.68c.82-.24,1.84-.07,1.79,1s-.81,1-1.55.88c-1-.14-.89-1.65-.24-1.85"/><path class="cls-1" d="M52.44,75.36c1.17-.06,1.52,1.79.41,2.26-1.53.66-1.84-2.19-.41-2.26"/><path class="cls-1" d="M78.45,51.82c.67-.63,2.69,0,1.85,1.38-.25.42-1.37.44-1.75.26s-.47-1.29-.1-1.64"/><path class="cls-1" d="M74.84,53.36a1.07,1.07,0,0,1,.44-1.7c1-.19,1.75.14,1.53,1.26-.15.76-1.51.85-2,.44"/><path class="cls-1" d="M55.25,97c1.21-.19,1.42,2.32-.26,1.83-.82-.24-.63-1.69.26-1.83"/><path class="cls-1" d="M50.17,97c1.07-.16,1.49,2,0,1.87-1.06-.07-1-1.71,0-1.87"/><path class="cls-1" d="M55.93,93.67c.76.72-.15,2.17-1.09,1.55s.19-2.39,1.09-1.55"/><path class="cls-1" d="M50,93.52c1.26-.26,1.49,1.76.23,1.85-1,.06-1.19-1.65-.23-1.85"/><path class="cls-1" d="M3.12,50.75c3.05-.63,3.25,4.26.12,3.83a2,2,0,0,1-.12-3.83"/><path class="cls-1" d="M52.32,42.32a6.22,6.22,0,0,1,2.13.76c3.68,1.65,7.24,3.58,10.92,5.25.72,1-.17,1.31-.94,1.7-3.8,1.93-8,3.47-11.88,5.11a2.3,2.3,0,0,1-1-.21c-3.94-1.37-7.94-3.75-11.89-5.23a.81.81,0,0,1,0-1.44Zm10.46,6.53L52.43,44,42.36,48.82l-.17.29,10.23,4.41,10-4.38Z"/><path class="cls-1" d="M42.19,54.33l10.25,4.24,10.2-4.11-1.71-1c-.15-.93,1-1.17,1.72-1a20.7,20.7,0,0,1,2.58,1.16c.6.45.57.88,0,1.36L52.42,60.28,39.44,55a.82.82,0,0,1-.16-.85c.16-.54,3.19-1.75,3.74-1.68.29,0,.88.25.92.58.13.83-1.17,1-1.75,1.27"/><path class="cls-1" d="M44,58.85l-1.71.69.21.25,9.87,3.88,10.1-3.93.13-.2c-.91-.23-3-1.09-1.09-1.7,1.15-.36,2.65.92,3.81,1.16.34.44.48.8,0,1.21l-13,5.18-12.86-5a.8.8,0,0,1-.14-1.22,30.38,30.38,0,0,1,3.18-1.37c.62-.14,1.72.29,1.42,1.09"/><path class="cls-1" d="M94,57.12a2.61,2.61,0,1,1-2.06,4.79c-2.18-1-1.74-4,.3-4.87V44.1c.09-1.2,1.6-1.44,1.75-.13Zm-.2,3.19a1,1,0,0,0-1.37-1.44c-1,.88.54,2.27,1.37,1.44"/><path class="cls-1" d="M51.91,8.24c4.19-.67,4.84,5.32,1.14,5.95-4,.69-4.89-5.35-1.14-5.95m.27,1.6a1.42,1.42,0,0,0,.49,2.78,1.42,1.42,0,1,0-.49-2.78"/><path class="cls-1" d="M93.75,60.31c-.83.83-2.35-.56-1.37-1.44a1,1,0,0,1,1.37,1.44"/><path class="cls-1" d="M52.18,9.84a1.41,1.41,0,1,1,.49,2.78,1.41,1.41,0,0,1-.49-2.78"/></g></g></svg>